<svg width="67" height="35" viewBox="0 0 67 35" fill="none" xmlns="http://www.w3.org/2000/svg">
<g clip-path="url(#clip0_50_3435)">
<path d="M2.50877 32.0036C1.33601 30.9372 1.33601 29.4698 0.929646 28.0476C0.298112 25.7808 0.252961 23.4262 0.117506 21.1154C0.0723549 20.2709 0.0723553 19.4263 0.0272039 18.5823C-0.107664 15.7817 0.298113 12.9788 0.388415 10.1811C0.478718 7.78086 0.433567 3.86881 1.56118 1.64648C2.41847 -0.0426609 3.9976 0.00182033 5.03491 0.00182033C6.02765 0.00182033 5.9825 0.268709 6.11795 0.312612C7.42617 0.757426 7.83253 2.13519 7.96799 3.55744C8.28229 6.66767 7.51999 9.37872 6.61521 12.3567C5.93676 14.5819 5.17095 16.8019 4.764 19.1132C4.67369 19.6019 4.40279 20.0912 4.26733 20.5799C3.95186 21.6469 3.99701 22.6694 4.22218 23.6913C4.53824 25.0691 4.22218 26.4919 4.71885 27.8252C4.94402 28.4479 4.98976 29.1146 5.66644 29.4254C6.16252 29.6478 7.06496 29.6033 7.47074 29.203C8.77954 27.9142 9.0053 27.4254 9.68198 25.7808C10.3135 24.2696 10.5393 23.9137 11.0354 22.6249C11.1708 22.2691 11.216 22.1356 11.3966 21.9132C11.6217 21.6469 11.8475 21.6024 12.1636 21.6914C12.4796 21.7804 12.5693 22.0467 12.4796 22.3136C11.7126 24.6243 11.6217 25.247 10.945 27.4254C10.5393 28.7587 9.99746 29.3809 9.04986 30.4479C8.73439 30.8037 8.64409 31.0255 8.28346 31.2924C7.60619 31.7817 7.24556 32.2704 6.52431 32.7153C5.3967 33.3819 3.50152 32.9371 2.50877 32.0036ZM4.22335 15.2901C4.72002 13.8234 5.08064 12.3567 5.48701 10.8455C5.93793 9.2008 6.3443 8.00038 6.4346 6.26676C6.47975 5.51115 6.65977 4.71107 6.16369 3.99994C5.89278 3.59961 5.26125 2.5777 5.03549 2.97745C4.49426 3.91098 4.2685 5.60012 4.22335 6.66709C4.08848 9.60055 3.86273 12.3122 3.86273 15.2456C3.86273 15.3352 3.81758 15.5125 3.99818 15.557C4.13305 15.6015 4.17762 15.4236 4.22335 15.2901Z" fill="#FFDE21"/>
<path d="M10.2242 27.5149C9.95331 26.6703 9.99847 25.9147 10.0436 25.0696C10.0436 23.1141 10.0436 21.6035 9.95331 19.6914C9.7733 17.2021 9.72814 15.602 10.45 12.7592C10.6757 11.9152 11.217 11.4704 12.0743 11.5149C12.8412 11.5149 13.3373 11.9591 13.6082 12.7592C13.8791 13.6038 13.6534 14.4923 13.7888 15.3819C14.014 16.6713 14.0592 16.6268 13.9694 17.9601C13.8791 19.2494 14.1043 20.1385 14.1495 21.4261C14.1495 22.1817 14.1043 22.4931 14.1495 23.2487C14.2398 24.8489 14.014 26.4935 14.3752 28.0937C14.4204 28.1827 14.4204 28.2716 14.5107 28.3606C15.864 30.1797 16.3156 25.292 16.5859 23.8697C17.0374 21.6919 16.9019 20.0917 17.3077 17.9133C17.5786 16.3576 17.4883 15.2461 17.6689 13.6904C17.8044 12.5351 17.7592 12.5351 17.8044 11.4236C17.8044 11.0678 17.985 10.757 18.0753 10.4011C18.2102 9.95688 18.7068 9.9124 19.1578 9.86792C19.519 9.82344 19.6544 10.0903 19.7899 10.3566C20.1956 11.0678 20.1053 11.9129 20.2408 12.6674C20.3763 13.245 20.4214 13.8672 20.4214 14.4894C20.4214 17.0675 20.3311 18.268 20.4666 20.4013C20.5117 21.6907 20.5117 22.5353 20.5117 23.7796C20.4666 24.8466 20.4214 25.9136 20.4214 26.98V27.1579C20.4214 27.5137 20.4214 27.958 20.782 28.0469C21.1432 28.1804 22.3166 26.9355 22.4972 26.6692C23.3539 25.2908 23.67 24.2689 24.2563 22.9795C24.8427 21.6018 26.5127 22.0015 26.0612 23.024L24.9782 25.3347C24.8433 25.9124 24.5273 26.4017 24.2563 26.8459C23.67 27.8684 23.219 28.8909 22.3166 29.6465C21.878 30.0404 21.3742 30.3574 20.8272 30.5841C20.3763 30.762 19.9253 30.6731 19.519 30.4507C18.752 29.9619 18.1204 29.3837 17.7598 28.5391C17.7598 28.4507 17.6695 28.3173 17.5792 28.3618C17.5341 28.3618 17.4889 28.4946 17.4438 28.5836L16.8122 30.1393C16.4968 30.8065 16.0001 31.3397 15.4589 31.7845C15.0525 32.1843 13.9249 31.9619 13.2476 31.7845C11.217 31.2484 10.8106 29.2485 10.2242 27.5149Z" fill="#FFDE21"/>
<path d="M24.8426 33.2489C24.2562 31.026 23.9402 29.115 23.895 26.6258C23.9853 23.8697 24.1659 20.9363 24.2562 18.0022C24.3014 16.491 24.5266 15.0243 24.6169 13.5576C24.662 12.8903 24.9781 12.5795 25.6999 12.4906C26.8727 12.3571 27.6402 13.0238 27.7305 14.0908L27.8654 16.0468C27.8654 16.1352 27.8203 17.6914 28.0009 17.7353C28.0912 17.7353 29.3097 14.1797 29.896 13.4241C30.347 12.8464 30.8888 12.2237 31.6106 11.9568C32.7388 11.557 34.1374 12.5345 34.2728 13.8239C34.4083 15.602 34.2277 17.6943 34.0019 19.469C33.9567 19.9138 33.8664 20.5359 33.9116 20.9802C33.7316 23.1141 33.7761 25.4699 33.8664 27.4704C33.8664 27.6477 33.7761 28.4039 34.0019 28.4923C34.2277 28.5368 35.1301 27.8257 35.2204 27.6477C35.7616 26.9811 36.5286 26.0031 36.8898 25.0257C37.2053 24.3145 37.4311 23.8252 37.8826 23.1141C38.469 22.2251 39.6869 22.1806 39.5068 22.8917C39.1456 24.27 38.5593 25.6478 37.8826 26.9811C37.0698 28.5813 36.5286 29.2918 35.265 30.4928C34.1825 31.4708 33.2801 31.3819 32.3331 30.2704C31.837 29.6927 31.6112 29.0706 31.5661 28.2705C31.3855 26.0476 31.6112 23.1141 31.8821 20.9339C32.1073 19.2893 32.604 17.6446 32.5137 16C32.5137 14.6661 31.5661 14.7996 31.2049 15.4223C31.0791 15.5636 30.9866 15.7304 30.9339 15.911L29.7154 18.4002C29.2194 19.4222 29.0388 20.5336 28.6775 21.6006C28.4072 22.4007 28.3621 23.2452 28.3621 24.0453C28.4072 25.8234 28.4524 27.601 28.3169 29.379C28.1815 30.6684 28.2718 31.602 28.0912 32.9352C28.0009 34.0022 26.5572 34.8023 25.5644 34.2685C25.2 34.0324 24.9416 33.6674 24.8426 33.2489Z" fill="#FFDE21"/>
<path d="M37.4305 29.6021C37.7466 28.8464 38.0621 28.0908 38.4233 27.3352C39.3251 25.5127 40.1824 23.6901 41.2655 21.9565C42.2131 20.4008 43.1607 18.8451 43.8825 17.2004C44.018 16.8446 44.3792 16.5783 44.4689 16.1779C44.5146 15.9116 44.6043 15.7782 44.1986 15.8671C43.6122 16.0451 43.0704 16.3114 42.484 16.4448C41.3112 16.7117 40.2276 16.6227 39.2354 15.9555C38.333 15.3334 37.8357 14.4021 37.3402 13.427C37.1596 13.0267 37.1596 12.7153 37.7918 12.5824C38.7388 12.36 39.6863 12.4045 40.6339 12.2711C42.2131 12.0487 43.7922 11.8713 44.9655 11.7379C46.5447 11.6044 48.3496 12.4045 48.7108 13.6488C48.9811 14.4495 48.8908 15.2045 48.5753 15.9162C47.4026 18.3165 46.2298 20.8057 44.6043 22.9836C43.7922 24.0505 42.9801 25.162 42.2588 26.3174L42.1234 26.5843C41.8079 27.1175 41.8524 27.1174 42.4394 27.1174C43.7025 27.1174 44.7404 27.6062 45.688 28.3623C46.7259 29.2063 46.771 29.3843 48.305 28.4068C50.2447 27.1174 50.9672 25.1141 51.7342 23.117C51.9599 22.4949 52.2302 21.8721 52.5011 21.25C52.5463 21.161 52.5463 20.9392 52.7269 20.9831C52.9075 20.9831 52.9521 21.1165 53.0424 21.2944C53.2681 22.0056 53.0875 22.6728 52.9075 23.3839C52.8172 23.7837 52.6366 24.1395 52.5914 24.5393C52.4108 25.9176 51.689 27.073 51.1472 28.2734C50.7866 29.2063 50.3802 30.0954 49.7035 30.7626C48.4856 32.0959 46.7716 32.1849 45.1919 31.1624C44.8758 30.8961 44.5598 30.6292 44.2443 30.4068C44.0185 30.2294 43.8379 30.0515 43.6128 29.918C43.3419 29.7401 42.9806 29.7401 42.6652 29.7401C42.1685 29.6512 42.1234 30.0515 41.9433 30.3178C41.357 31.1624 40.6797 31.8735 39.5978 32.0959C38.5582 32.3171 36.8442 30.9816 37.4305 29.6021Z" fill="#FFDE21"/>
<path d="M58.5461 33.5597C58.0494 32.7596 57.6888 31.8706 57.6888 30.8932C57.6436 27.5149 58.4558 22.5803 58.9518 19.2027C59.0421 18.5805 58.997 17.9578 59.0421 17.2911C59.0421 17.2022 59.0421 17.1132 58.9518 17.0687C58.8164 17.0242 58.7712 17.1577 58.7261 17.2021C57.8688 18.1357 56.2897 20.6682 55.613 21.7364C55.3421 22.1806 55.4775 22.7138 55.4324 23.2031C55.1621 25.6033 54.846 28.0036 54.846 30.4483C54.846 30.8932 54.5751 31.2929 54.3042 31.6037C53.9436 32.0035 52.4547 31.6927 52.1838 31.0699C52.0914 30.7826 52.0457 30.4828 52.0484 30.1815L51.6877 24.6248C51.6426 23.6023 52.0484 18.7128 51.7329 15.7348C51.5523 13.9123 51.7329 7.60053 52.0484 5.77795C52.1838 5.02235 53.0863 4.40019 53.6275 3.91089C54.1693 3.37769 55.0266 3.33321 55.7033 3.64458C56.4703 3.99985 56.7863 4.71098 56.6509 5.4221C56.4251 6.88941 56.4703 12.7586 56.2897 14.2236C56.1091 15.29 56.0193 16.4015 55.8839 17.4685C55.8387 17.6464 55.7936 17.8682 55.9285 17.9572C56.1091 18.0906 56.2445 17.8682 56.38 17.7348C57.0567 17.0236 58.1849 14.8464 59.0421 14.6234C60.4858 14.2681 61.4334 14.1347 61.8849 14.8903C62.381 15.7348 62.381 16.7129 62.4713 17.6909C62.6519 19.5129 61.8849 23.6023 61.5689 25.1135C61.1179 27.2474 61.0722 29.9146 61.298 32.0456C61.3431 32.4904 61.5237 32.4904 61.7946 32.357C62.6519 32.0012 63.1028 31.2455 63.5538 30.5344C64.0956 29.6009 64.2762 28.4894 64.6368 27.4675C64.9529 26.4005 65.3141 25.378 65.6747 24.3117C65.765 23.9558 65.9005 23.6 66.2159 23.3336C66.4417 23.0668 66.6675 23.1557 66.8023 23.3781C66.9829 23.6889 67.0275 24.1337 66.9829 24.4445C66.6217 26.8009 65.8999 29.066 64.9974 31.2455C64.7265 31.9122 64.5008 32.6233 63.9595 33.1571C63.1926 33.9127 62.3804 34.4904 61.2974 34.7128C60.2606 34.9826 59.1324 34.4933 58.5461 33.5597Z" fill="#FFDE21"/>
</g>
<defs>
<clipPath id="clip0_50_3435">
<rect width="67" height="34.7885" fill="white"/>
</clipPath>
</defs>
</svg>
