<svg width="66" height="34" viewBox="0 0 66 34" fill="none" xmlns="http://www.w3.org/2000/svg">
<g clip-path="url(#clip0_79_8298)">
<path d="M2.47151 31.9991C1.31625 30.9328 1.31625 29.4656 0.915951 28.0435C0.293844 25.7768 0.249366 23.4224 0.115933 21.1119C0.0714557 20.2674 0.0714553 19.4229 0.0269777 18.579C-0.106455 15.7787 0.293843 12.976 0.382798 10.1785C0.471753 7.77848 0.427276 3.86677 1.53806 1.64463C2.38255 -0.0443644 3.93869 0.000111325 4.96052 0.000111325C5.93844 0.000111325 5.89397 0.266977 6.0274 0.311455C7.31609 0.755652 7.71639 2.1333 7.84982 3.556C8.16059 6.66712 7.40505 9.37851 6.51607 12.3562C5.84949 14.5783 5.09395 16.8011 4.69423 19.1145C4.60527 19.6031 4.33841 20.0924 4.20498 20.5811C3.89363 21.648 3.93869 22.6704 4.1605 23.6922C4.47184 25.0704 4.1605 26.4925 4.64975 27.8257C4.87156 28.4484 4.91604 29.115 5.5832 29.4257C6.07188 29.6481 6.96085 29.6036 7.36057 29.2039C8.64984 27.9147 8.87165 27.426 9.53881 25.7815C10.1609 24.2704 10.3833 23.9146 10.872 22.6259C11.0054 22.2701 11.0499 22.1366 11.2278 21.9142C11.4496 21.648 11.672 21.6035 11.9833 21.6924C12.2947 21.7814 12.3831 22.0477 12.2941 22.3145C11.5386 24.6251 11.4496 25.2477 10.783 27.426C10.3833 28.7592 9.84958 29.3813 8.91613 30.4481C8.60536 30.804 8.51641 31.0258 8.16059 31.2926C7.494 31.7819 7.13876 32.2706 6.4277 32.7153C5.31634 33.3773 3.44944 32.9325 2.47151 31.9991ZM4.1605 15.2871C4.64975 13.8205 5.00499 12.3539 5.40529 10.8428C5.84949 9.19829 6.24979 7.99798 6.33816 6.26451C6.38264 5.50897 6.56055 4.70895 6.07188 3.99789C5.80501 3.59759 5.1829 2.57576 4.96052 2.97548C4.42736 3.90893 4.20498 5.59792 4.1605 6.66481C4.02707 9.59801 3.80526 12.3094 3.80526 15.2426C3.80526 15.3321 3.76078 15.5095 3.93869 15.554C4.07154 15.5984 4.11602 15.4205 4.1605 15.2871Z" fill="#FFDE21"/>
<path d="M10.0742 27.5105C9.80738 26.666 9.85186 25.9105 9.89634 25.066C9.89634 23.1101 9.89634 21.6002 9.80738 19.6877C9.62947 17.1986 9.58499 15.5986 10.2966 12.7561C10.5184 11.9122 11.0522 11.4674 11.8967 11.5119C12.6522 11.5119 13.1409 11.9567 13.4078 12.7561C13.6746 13.6006 13.4522 14.489 13.5851 15.3785C13.8075 16.6678 13.8519 16.6233 13.763 17.9565C13.6746 19.2458 13.8964 20.1347 13.9409 21.4223C13.9409 22.1778 13.8964 22.4892 13.9409 23.2447C14.0299 24.8447 13.8075 26.4893 14.1633 28.0893C14.2078 28.1782 14.2078 28.2672 14.2967 28.3562C15.6299 30.1786 16.0741 25.2889 16.341 23.8668C16.7857 21.6891 16.6523 20.0891 17.052 17.9109C17.3189 16.3553 17.2299 15.244 17.4078 13.6884C17.5413 12.5331 17.4968 12.5331 17.5413 11.4218C17.5413 11.0665 17.7186 10.7552 17.8081 10.3994C17.941 9.95517 18.4302 9.91069 18.8744 9.86621C19.2303 9.82174 19.3637 10.0886 19.4965 10.3549C19.8968 11.0665 19.8079 11.911 19.9413 12.6654C20.0748 13.243 20.1192 13.8651 20.1192 14.4873C20.1192 17.0652 20.0303 18.2655 20.1637 20.3987C20.2076 21.688 20.2076 22.5325 20.2076 23.7767C20.1637 24.8436 20.1192 25.9105 20.1192 26.9768V27.1547C20.1192 27.5105 20.1192 27.9547 20.4745 28.0437C20.8303 28.1771 21.9856 26.9323 22.1635 26.666C23.008 25.2878 23.3187 24.266 23.8964 22.9767C24.474 21.599 26.1185 21.9988 25.6743 23.0212L24.6074 25.3317C24.474 25.9093 24.1632 26.3986 23.8964 26.8428C23.3187 27.8652 22.874 28.8876 21.985 29.6431C21.5526 30.0368 21.056 30.3535 20.5166 30.5795C20.0724 30.7574 19.6277 30.6684 19.2279 30.446C18.4724 29.9573 17.8497 29.3791 17.4951 28.5346C17.4951 28.4463 17.4061 28.3128 17.3172 28.3573C17.2727 28.3573 17.2282 28.4902 17.1837 28.5791L16.5616 30.1347C16.2503 30.8018 15.7616 31.335 15.2284 31.7798C14.8281 32.1795 13.7168 31.9571 13.0502 31.7798C11.0499 31.2437 10.6519 29.244 10.0742 27.5105Z" fill="#FFDE21"/>
<path d="M24.4723 33.2443C23.8946 31.0215 23.5833 29.1107 23.5388 26.6217C23.6278 23.8659 23.8057 20.9326 23.8941 17.9989C23.9385 16.4878 24.1609 15.0212 24.2499 13.5546C24.2944 12.8874 24.6057 12.5767 25.3168 12.4877C26.472 12.3543 27.2281 13.0209 27.3165 14.0877L27.45 16.0436C27.45 16.132 27.4055 17.6881 27.5834 17.732C27.6723 17.732 28.8727 14.1767 29.4503 13.4212C29.8945 12.8435 30.4282 12.2208 31.1393 11.9545C32.2506 11.5543 33.6283 12.5322 33.7611 13.8209C33.8951 15.5988 33.7172 17.6881 33.4949 19.466C33.4504 19.9102 33.3614 20.5324 33.4059 20.9766C33.228 23.1103 33.2725 25.4659 33.3614 27.4662C33.3614 27.6436 33.2725 28.3997 33.4949 28.4881C33.7172 28.5325 34.6062 27.8215 34.6946 27.6436C35.2283 26.977 35.9839 25.999 36.3391 25.0217C36.6504 24.3106 36.8728 23.8214 37.317 23.1103C37.8947 22.2213 39.095 22.1769 38.9171 22.8879C38.5618 24.2662 37.9842 25.6438 37.317 26.977C36.517 28.577 35.9839 29.2875 34.7391 30.4884C33.6728 31.4663 32.7838 31.3774 31.8509 30.266C31.3622 29.6884 31.1399 29.0663 31.0954 28.2662C30.9175 26.0435 31.1399 23.1103 31.4061 20.9303C31.6285 19.2858 32.1178 17.6413 32.0288 15.9968C32.0288 14.6631 31.0954 14.7965 30.7396 15.4192C30.6157 15.5606 30.5248 15.7277 30.4733 15.9084L29.273 18.3974C28.7843 19.4193 28.6064 20.5306 28.2505 21.5975C27.9843 22.3975 27.9398 23.242 27.9398 24.042C27.9843 25.82 28.0282 27.5973 27.8953 29.3753C27.7619 30.6646 27.8508 31.598 27.6729 32.9312C27.584 33.9981 26.1618 34.7981 25.1839 34.2644C24.8243 34.0286 24.5694 33.6632 24.4723 33.2443Z" fill="#FFDE21"/>
<path d="M36.8722 29.5973C37.183 28.8418 37.4944 28.0863 37.8502 27.3307C38.7386 25.5083 39.5831 23.6859 40.6499 21.9524C41.5834 20.3968 42.5168 18.8413 43.2279 17.1968C43.3613 16.8409 43.7166 16.5747 43.8055 16.1744C43.85 15.9081 43.939 15.7746 43.5392 15.8636C42.9616 16.0415 42.4279 16.3078 41.8503 16.4412C40.695 16.7081 39.6275 16.6191 38.6496 15.952C37.7606 15.3299 37.272 14.3987 36.7833 13.4237C36.6054 13.0234 36.6054 12.7121 37.2275 12.5792C38.1609 12.3568 39.0944 12.4013 40.0278 12.2679C41.5834 12.0455 43.139 11.8681 44.2948 11.7347C45.8503 11.6013 47.6283 12.4013 47.9835 13.6455C48.2504 14.4461 48.1614 15.2011 47.8501 15.9127C46.6948 18.3128 45.5396 20.8018 43.939 22.9794C43.139 24.0463 42.3389 25.1577 41.6284 26.3129L41.495 26.5798C41.1837 27.1129 41.2281 27.1129 41.8064 27.1129C43.0506 27.1129 44.073 27.6016 45.0064 28.3577C46.0288 29.2022 46.0733 29.3796 47.5844 28.4022C49.4952 27.1129 50.2068 25.1097 50.9624 23.1129C51.1842 22.4908 51.451 21.8681 51.7179 21.246C51.7624 21.157 51.7624 20.9352 51.9397 20.9791C52.1176 20.9791 52.1621 21.1125 52.2511 21.2904C52.4735 22.0015 52.2955 22.6687 52.1176 23.3797C52.0293 23.7794 51.8513 24.1353 51.8069 24.535C51.629 25.9132 50.9179 27.0685 50.3842 28.2688C50.0289 29.2022 49.6286 30.0906 48.962 30.7578C47.7623 32.091 46.0739 32.1799 44.5178 31.1575C44.2064 30.8912 43.8951 30.6244 43.5843 30.402C43.3619 30.2246 43.184 30.0467 42.9616 29.9133C42.6953 29.7354 42.3395 29.7354 42.0282 29.7354C41.5395 29.6464 41.495 30.0467 41.3171 30.313C40.7395 31.1575 40.0729 31.8686 39.0066 32.091C37.983 32.3122 36.294 30.9767 36.8722 29.5973Z" fill="#FFDE21"/>
<path d="M57.6709 33.5547C57.1823 32.7547 56.8264 31.8657 56.8264 30.8884C56.782 27.5104 57.582 22.5763 58.0712 19.1989C58.1602 18.5767 58.1157 17.9541 58.1602 17.2875C58.1602 17.1985 58.1602 17.1096 58.0712 17.0651C57.9378 17.0206 57.8933 17.154 57.8489 17.1985C57.0044 18.132 55.4488 20.6643 54.7822 21.7323C54.5154 22.1765 54.6488 22.7103 54.6043 23.1989C54.3374 25.599 54.0267 27.999 54.0267 30.4436C54.0267 30.8884 53.7598 31.2881 53.4929 31.5988C53.1377 31.9986 51.6711 31.6878 51.4042 31.0651C51.3132 30.7779 51.2682 30.478 51.2708 30.1767L50.915 24.6205C50.8711 23.5987 51.2708 18.709 50.9595 15.7313C50.7821 13.9089 50.9595 7.59773 51.2708 5.77531C51.4042 5.01977 52.2932 4.39766 52.8264 3.90841C53.3601 3.37526 54.2046 3.33078 54.8712 3.64212C55.6267 3.99736 55.9375 4.70843 55.8046 5.41949C55.5822 6.88667 55.6267 12.7554 55.4488 14.2203C55.2709 15.2866 55.1819 16.3979 55.0485 17.4648C55.0046 17.6427 54.9601 17.8645 55.093 17.9535C55.2709 18.0869 55.4043 17.8645 55.5378 17.7311C56.2043 17.02 57.3157 14.8429 58.1602 14.62C59.5823 14.2647 60.5158 14.1313 60.96 14.8868C61.4492 15.7313 61.4492 16.7093 61.5376 17.6872C61.7149 19.509 60.96 23.5987 60.6486 25.1092C60.2039 27.2429 60.1594 29.9099 60.3818 32.0407C60.4262 32.4855 60.6042 32.4855 60.871 32.3521C61.7149 31.9962 62.1597 31.2407 62.6039 30.5296C63.1376 29.5962 63.315 28.4848 63.6708 27.463C63.9821 26.3961 64.3374 25.3737 64.6932 24.3074C64.7821 23.9516 64.915 23.5964 65.2263 23.3295C65.4487 23.0626 65.6711 23.1516 65.804 23.374C65.9819 23.6847 66.0264 24.1295 65.9819 24.4403C65.6266 26.7964 64.915 29.0613 64.0266 31.2407C63.7597 31.9073 63.5374 32.6184 63.0042 33.1521C62.2487 33.9076 61.4486 34.4853 60.3818 34.7076C59.3611 34.9774 58.2486 34.4881 57.6709 33.5547Z" fill="#FFDE21"/>
<path d="M1.01536 10.3049C0.984746 9.20743 0.962796 8.10416 1.01536 7.00088C1.06792 5.89761 1.18518 4.79087 1.47342 3.70839C1.62649 3.16946 1.82 2.63862 2.11863 2.1459L2.17639 2.05406C2.18621 2.03904 2.19488 2.02345 2.20528 2.00843L2.23878 1.96568L2.37221 1.79239C2.3944 1.76364 2.41853 1.73642 2.44442 1.71095L2.52009 1.63239L2.59575 1.55441C2.62175 1.52842 2.65352 1.50647 2.67836 1.48279C2.73612 1.43715 2.78868 1.38748 2.8476 1.34473L3.02898 1.22343C3.08963 1.18415 3.15605 1.15469 3.21959 1.12003C3.28314 1.08574 3.34895 1.05583 3.41657 1.0305C3.68077 0.924039 3.95763 0.852201 4.24027 0.816776C4.5181 0.782841 4.79797 0.768365 5.07783 0.773454C5.21646 0.773454 5.35452 0.782118 5.49199 0.787895C5.62947 0.793671 5.76925 0.800603 5.90731 0.817354C6.04677 0.832732 6.18424 0.862741 6.31742 0.906886C6.38447 0.9302 6.44744 0.963925 6.504 1.00682C6.53161 1.02846 6.55713 1.05263 6.58025 1.07902C6.6004 1.10657 6.62697 1.12877 6.65765 1.14372C6.62443 1.13269 6.59432 1.11387 6.56985 1.08884C6.54451 1.06715 6.51725 1.04781 6.4884 1.03108C6.43036 0.997847 6.36767 0.973509 6.30241 0.958875C6.16946 0.930652 6.03397 0.916135 5.89807 0.915552C5.62831 0.915552 5.35163 0.929414 5.07956 0.946165C4.53775 0.978512 3.99651 1.06169 3.51996 1.28466C3.28369 1.39337 3.06611 1.5388 2.87533 1.71557C2.85164 1.73752 2.82623 1.75774 2.80428 1.78084L2.73901 1.85304L2.68067 1.92236C2.65787 1.94545 2.637 1.97037 2.61828 1.99687L2.50276 2.15399L2.47388 2.19327C2.46463 2.20656 2.45712 2.22099 2.44904 2.23544L2.39936 2.31977L2.35026 2.4041C2.33277 2.43182 2.31695 2.46056 2.3029 2.49017L2.21856 2.67097L2.13307 2.8535L2.06145 3.04065C2.01408 3.166 1.96209 3.28903 1.9257 3.419L1.86794 3.61193C1.84772 3.67605 1.82635 3.73958 1.81018 3.80543C1.66787 4.32808 1.55772 4.85895 1.48035 5.39507C1.39197 5.93285 1.34056 6.47697 1.28511 7.02168C1.17883 8.10993 1.128 9.2109 1.01536 10.3049Z" fill="url(#paint0_linear_79_8298)"/>
<path d="M29.7622 14.0878C29.9196 13.7532 30.1396 13.4519 30.4103 13.2C30.5539 13.0697 30.7175 12.9634 30.8949 12.8852L30.929 12.8696L30.966 12.858L31.0405 12.8355C31.0653 12.8286 31.0902 12.8193 31.1156 12.8147L31.1918 12.8026C31.2421 12.7935 31.2932 12.7892 31.3443 12.7899H31.4212C31.4466 12.7889 31.4722 12.7902 31.4974 12.7939C31.6974 12.813 31.8912 12.8736 32.0664 12.9718C32.4098 13.1584 32.6746 13.4625 32.8121 13.8284C32.8749 14.0046 32.9001 14.1919 32.886 14.3783C32.8307 14.2112 32.7547 14.0517 32.6596 13.9035C32.5656 13.7646 32.4537 13.6385 32.3269 13.5287C32.2043 13.4211 32.0665 13.3321 31.9179 13.2647C31.8462 13.2307 31.7718 13.2027 31.6955 13.1809L31.58 13.1532L31.4645 13.1388C31.3124 13.1247 31.159 13.1422 31.0139 13.1902C30.9376 13.2176 30.8631 13.2501 30.791 13.2872C30.7172 13.326 30.6455 13.3686 30.5761 13.4149C30.2913 13.6009 30.0372 13.8487 29.7622 14.0878Z" fill="url(#paint1_linear_79_8298)"/>
<path d="M24.515 14.1528C24.5008 14.0818 24.4951 14.0092 24.4983 13.9368C24.5002 13.8605 24.5144 13.785 24.5405 13.7133C24.5995 13.5589 24.7126 13.4312 24.8587 13.354C24.996 13.2808 25.1456 13.2336 25.3 13.2148C25.452 13.1934 25.6062 13.1934 25.7581 13.2148C25.9141 13.2401 26.0643 13.2931 26.2017 13.3713C26.3395 13.45 26.4579 13.5586 26.5483 13.689C26.6359 13.8144 26.6978 13.956 26.7302 14.1055C26.7585 14.2487 26.7608 14.3958 26.7372 14.5398C26.6911 14.4107 26.6353 14.2852 26.5702 14.1644C26.5076 14.054 26.4299 13.9528 26.3392 13.864C26.1646 13.698 25.9424 13.5908 25.7038 13.5573C25.6431 13.5482 25.582 13.5426 25.5207 13.5405C25.4895 13.5405 25.4589 13.5359 25.4271 13.5405C25.3953 13.5452 25.3647 13.5405 25.3335 13.5405C25.211 13.5438 25.0894 13.5632 24.9719 13.5983C24.9444 13.6072 24.9174 13.6176 24.8911 13.6295C24.8657 13.6419 24.8412 13.6559 24.8177 13.6717C24.7684 13.7036 24.725 13.7439 24.6895 13.7907C24.6116 13.9008 24.5526 14.0232 24.515 14.1528Z" fill="url(#paint2_linear_79_8298)"/>
<path d="M39.1199 13.3084C39.8315 13.1351 40.5512 13.0028 41.2721 12.8885C41.6326 12.8307 41.9947 12.7816 42.3558 12.7296C42.5366 12.7042 42.7179 12.684 42.8987 12.6609L43.1702 12.6274C43.2632 12.617 43.3499 12.6025 43.4492 12.5968C44.2079 12.5508 44.9652 12.7064 45.6442 13.0479C45.9842 13.2149 46.2924 13.4399 46.5551 13.7127C46.8104 13.9877 47.0115 14.3239 47.075 14.6872C46.9363 14.3557 46.7181 14.0635 46.4396 13.8363C46.3049 13.7218 46.1601 13.6197 46.007 13.5314C45.855 13.4417 45.6971 13.3624 45.5345 13.294C44.8839 13.0223 44.1801 12.9024 43.4764 12.9433C43.3926 12.9433 43.299 12.9601 43.2106 12.9687L42.9392 12.9982C42.7578 13.0173 42.577 13.0386 42.3956 13.056C42.0323 13.0889 41.6707 13.1287 41.3068 13.1571C40.579 13.2177 39.8517 13.2743 39.1199 13.3084Z" fill="url(#paint3_linear_79_8298)"/>
<path d="M57.4468 15.3206C57.7131 15.2351 57.9817 15.156 58.2555 15.0896C58.5302 15.0183 58.811 14.9727 59.0942 14.9533L59.2028 14.9492C59.2386 14.9492 59.2756 14.9521 59.3119 14.9533C59.3855 14.9559 59.4589 14.9635 59.5314 14.9758C59.6824 14.9995 59.8276 15.0512 59.9595 15.1283L60.0103 15.1572C60.0265 15.1681 60.0415 15.1803 60.0571 15.1924C60.0871 15.2167 60.1195 15.2398 60.1478 15.2658C60.2035 15.3189 60.2543 15.3769 60.2997 15.4391C60.3216 15.4702 60.3459 15.502 60.365 15.5338L60.4193 15.6291C60.4568 15.6921 60.4863 15.7585 60.5192 15.8232C60.6413 16.0862 60.732 16.3627 60.7895 16.6469C60.847 16.9259 60.8894 17.2078 60.9166 17.4914C60.9466 17.7715 60.9645 18.0511 60.9905 18.3255C61.0021 18.4653 61.0108 18.6114 61.02 18.7535L61.024 19.1804C61.0142 19.7476 60.9663 20.3079 60.8987 20.8653C60.8311 21.4227 60.7537 21.9778 60.6544 22.5295C60.4649 23.6327 60.2298 24.7245 59.9369 25.8075C60.0889 24.699 60.2483 23.5952 60.3869 22.4896L60.4874 21.6601C60.5169 21.384 60.5486 21.1073 60.5723 20.8306C60.585 20.6926 60.5995 20.5545 60.6093 20.4165C60.6191 20.2784 60.6336 20.1398 60.6405 20.0018L60.6653 19.5882L60.678 19.1752V18.7645C60.6705 18.6281 60.6642 18.4953 60.6544 18.3567L60.5914 17.5214C60.551 16.9709 60.4759 16.4285 60.2731 15.9323C60.246 15.8717 60.2223 15.8087 60.1905 15.7504L60.1455 15.6609C60.1299 15.632 60.112 15.6077 60.0952 15.5811C60.0617 15.5285 60.023 15.4794 59.9797 15.4344C59.9583 15.4125 59.9341 15.3934 59.9115 15.3726C59.9 15.3622 59.889 15.3513 59.8769 15.342L59.8382 15.3166C59.6343 15.1728 59.3639 15.1271 59.0948 15.1196C58.8195 15.1164 58.5446 15.1367 58.2728 15.1803C57.9973 15.2219 57.7223 15.2721 57.4468 15.3206Z" fill="url(#paint4_linear_79_8298)"/>
<path d="M51.5024 6.48333C51.5092 6.35753 51.5363 6.23365 51.5827 6.11653C51.6314 5.99927 51.6918 5.88722 51.763 5.78209C51.9067 5.57591 52.0708 5.38471 52.2528 5.21139C52.3412 5.12532 52.4313 5.0381 52.5202 4.95781L52.6525 4.83419L52.7865 4.70654C52.8871 4.61302 53.0013 4.53514 53.125 4.47549C53.2487 4.41624 53.3793 4.37277 53.5138 4.3461C53.7795 4.29651 54.0531 4.30916 54.3132 4.38306C54.5728 4.45257 54.8127 4.58151 55.0139 4.75968C55.2128 4.93792 55.3554 5.17041 55.424 5.42858C55.4876 5.6764 55.4774 5.93742 55.3945 6.1795C55.4051 5.94141 55.3602 5.70412 55.2634 5.48634C55.1693 5.28115 55.0236 5.10384 54.8406 4.97167C54.6598 4.84339 54.4553 4.75227 54.2391 4.70358C54.0228 4.6549 53.7991 4.64962 53.5808 4.68805C53.3683 4.7264 53.1694 4.81891 53.0031 4.95665L52.8645 5.07218C52.8166 5.11261 52.7686 5.15073 52.7201 5.1877L52.4313 5.41414C52.2417 5.55994 52.0619 5.71797 51.8929 5.88721C51.8095 5.97171 51.7334 6.06311 51.6653 6.16043C51.5984 6.26122 51.5437 6.36962 51.5024 6.48333Z" fill="url(#paint5_linear_79_8298)"/>
<path d="M65.2189 23.6206C65.2911 23.6303 65.3585 23.6622 65.4118 23.7119C65.4668 23.761 65.5124 23.8197 65.5464 23.8852C65.6114 24.0129 65.6481 24.1532 65.6538 24.2964C65.6558 24.3656 65.6536 24.4349 65.6475 24.5038C65.6393 24.5717 65.6268 24.6391 65.6099 24.7054C65.5775 24.8383 65.5235 24.9649 65.4499 25.0803C65.4401 25.0131 65.4347 24.9454 65.4337 24.8775C65.4337 24.8117 65.4285 24.7464 65.4297 24.6829C65.4309 24.6193 65.4297 24.5558 65.4297 24.4928C65.4297 24.4616 65.4297 24.431 65.4297 24.4004C65.4297 24.3698 65.4297 24.338 65.4297 24.308C65.4253 24.1883 65.4103 24.0692 65.3847 23.9522C65.3605 23.8286 65.3032 23.714 65.2189 23.6206Z" fill="url(#paint6_linear_79_8298)"/>
<path d="M38.2678 22.666C38.3173 22.6913 38.3588 22.7297 38.388 22.7769C38.4048 22.7995 38.4189 22.8239 38.4301 22.8497C38.4432 22.8748 38.4536 22.9011 38.4613 22.9283C38.4786 22.9819 38.4908 23.037 38.4977 23.0929C38.5046 23.1506 38.5041 23.2032 38.5058 23.2592C38.4939 23.4752 38.4453 23.6875 38.362 23.8871C38.3223 23.9849 38.2768 24.0802 38.2256 24.1725C38.1761 24.2648 38.1207 24.354 38.0599 24.4393C37.9407 24.6121 37.8006 24.7695 37.6428 24.9078C37.6715 24.8072 37.7058 24.7082 37.7456 24.6115C37.766 24.5645 37.7853 24.5171 37.8034 24.4694C37.8225 24.422 37.8415 24.3752 37.8612 24.329C37.9033 24.2372 37.9391 24.1442 37.9796 24.0529C37.9992 24.0073 38.0212 23.9628 38.0373 23.916L38.0951 23.7797C38.1695 23.6011 38.232 23.4178 38.2823 23.2309C38.2903 23.1853 38.3025 23.1385 38.31 23.0917C38.317 23.045 38.3214 22.998 38.3233 22.9508C38.3312 22.8526 38.312 22.7541 38.2678 22.666Z" fill="url(#paint7_linear_79_8298)"/>
<path d="M10.1816 13.6244C10.2057 13.4543 10.2554 13.2887 10.3289 13.1334C10.4062 12.9722 10.518 12.83 10.6565 12.717C10.8003 12.603 10.9685 12.5239 11.148 12.4859C11.1925 12.4778 11.2375 12.4674 11.2826 12.4622C11.3277 12.457 11.3733 12.4512 11.4172 12.4501C11.5056 12.4501 11.5905 12.4437 11.6841 12.4501C11.8731 12.46 12.0578 12.5102 12.2259 12.5974C12.393 12.6893 12.539 12.8152 12.6545 12.9671C12.7655 13.1134 12.8555 13.2746 12.9219 13.4459L12.9687 13.573L13.0063 13.7053C13.0284 13.7927 13.0461 13.8812 13.0594 13.9704C13.1096 14.3251 13.0941 14.6722 13.0825 15.0055C13.0761 15.1725 13.0733 15.3371 13.0767 15.4994C13.0805 15.6619 13.0948 15.824 13.1195 15.9846C13.142 16.151 13.1651 16.3173 13.1853 16.486C13.2075 16.6567 13.2194 16.8285 13.2211 17.0007C13.2094 17.3409 13.1707 17.6797 13.1056 18.0138C13.0877 17.6765 13.0923 17.3368 13.0478 17.0105C13.0276 16.8476 12.9941 16.6876 12.9577 16.5241L12.848 16.0314C12.8086 15.8617 12.7819 15.6893 12.7683 15.5156C12.7538 15.3423 12.7521 15.169 12.7509 15.0003C12.7509 14.6618 12.7596 14.3326 12.7134 14.0184C12.7027 13.9406 12.688 13.8635 12.6695 13.7873L12.6395 13.6764L12.6002 13.5666C12.548 13.423 12.4769 13.2871 12.3888 13.1623C12.3059 13.0398 12.1975 12.9367 12.0709 12.8602C11.9444 12.7837 11.8027 12.7356 11.6558 12.7193C11.5789 12.71 11.4981 12.7054 11.4178 12.7002C11.3779 12.7002 11.3404 12.7002 11.3022 12.7002C11.2641 12.7002 11.2254 12.7066 11.1867 12.7094C11.0332 12.7265 10.8854 12.777 10.7535 12.8573C10.6174 12.9412 10.5004 13.0526 10.4098 13.1843C10.3165 13.3214 10.2399 13.4691 10.1816 13.6244Z" fill="url(#paint8_linear_79_8298)"/>
<path d="M17.747 12.834C17.7252 12.7742 17.7097 12.7122 17.7008 12.6492C17.6961 12.6186 17.6927 12.5879 17.6909 12.5568C17.6885 12.5219 17.6897 12.4868 17.6944 12.4522C17.6958 12.4448 17.6977 12.4374 17.7002 12.4303C17.7022 12.4237 17.7047 12.4173 17.7077 12.4112C17.7164 12.3938 17.7286 12.3785 17.7435 12.3661C17.7542 12.3576 17.7661 12.3506 17.7787 12.3453C17.797 12.3379 17.8168 12.3348 17.8365 12.3361C17.8656 12.338 17.8933 12.3491 17.9156 12.3679C17.9266 12.3771 17.9307 12.3823 17.9289 12.38L17.9185 12.3696C17.9048 12.3581 17.8888 12.3495 17.8716 12.3443C17.8545 12.3392 17.8364 12.3375 17.8186 12.3396C17.7982 12.3414 17.7786 12.3481 17.7614 12.3592C17.7442 12.3702 17.7299 12.3853 17.7198 12.4031C17.7154 12.4104 17.7117 12.4181 17.7088 12.4262L17.7054 12.436V12.4395C17.7054 12.4441 17.7054 12.4447 17.7054 12.4447C17.7035 12.4334 17.7023 12.422 17.7019 12.4106C17.7019 12.3823 17.6979 12.3529 17.6973 12.324C17.6945 12.2662 17.6956 12.2083 17.7008 12.1507C17.7048 12.1276 17.706 12.0929 17.7112 12.0571C17.716 12.0228 17.7232 11.9888 17.7325 11.9554C17.7507 11.8932 17.7745 11.8327 17.8036 11.7746C17.8573 11.6626 17.9191 11.5655 17.9601 11.4598L17.9688 11.4396L17.9798 11.4154C18.0009 11.3685 18.0296 11.3254 18.0647 11.2877C18.1105 11.24 18.1645 11.2008 18.2241 11.1722C18.3371 11.1226 18.4558 11.0875 18.5776 11.0676L18.7509 11.0335C18.8222 11.0162 18.8969 11.0176 18.9675 11.0376C19.0417 11.0604 19.1086 11.1022 19.1616 11.1589C19.2081 11.2073 19.2493 11.2606 19.2846 11.3177C19.3147 11.3639 19.351 11.4171 19.3817 11.4731C19.3961 11.502 19.4117 11.5309 19.425 11.5603L19.4631 11.6499C19.5075 11.7684 19.5417 11.8906 19.5653 12.0149C19.6064 12.2483 19.6316 12.4841 19.641 12.7208C19.6451 12.7786 19.6508 12.8329 19.6555 12.8831C19.6601 12.9334 19.6734 12.9952 19.6797 13.0564C19.6941 13.177 19.7022 13.2983 19.704 13.4197C19.7064 13.6605 19.682 13.9007 19.6312 14.136H19.5965C19.544 13.9049 19.503 13.6739 19.451 13.4486C19.4267 13.3366 19.3978 13.2268 19.3684 13.1182C19.3534 13.0639 19.3349 13.0114 19.3204 12.9478C19.306 12.8843 19.295 12.8225 19.2852 12.7624C19.2465 12.5204 19.239 12.2893 19.2153 12.0692C19.2042 11.9618 19.1849 11.8554 19.1575 11.751C19.1425 11.7007 19.1263 11.6505 19.1073 11.6019C19.0882 11.5534 19.0645 11.5043 19.0414 11.4466C18.9975 11.3437 18.9611 11.2577 18.8953 11.2195C18.8561 11.1969 18.8111 11.186 18.7659 11.1884C18.7081 11.1884 18.6504 11.1884 18.5926 11.1918C18.4813 11.1942 18.3717 11.2191 18.2703 11.2652C18.2246 11.2884 18.1851 11.322 18.1548 11.3634C18.1404 11.3832 18.1289 11.405 18.1207 11.4281C18.1164 11.4396 18.113 11.4513 18.1103 11.4633L18.1068 11.4801L18.1034 11.5026C18.0826 11.6227 18.0525 11.7423 18.0317 11.8492C18.0215 11.9013 18.014 11.9539 18.0092 12.0069C18.0092 12.0317 18.0057 12.056 18.0063 12.0796C18.0069 12.1033 18.0063 12.1258 18.0063 12.1611C18.0068 12.22 18.0029 12.2789 17.9948 12.3373C17.9913 12.3667 17.9873 12.395 17.9815 12.4262C17.9815 12.4424 17.9763 12.4545 17.9711 12.4799L17.9676 12.4955V12.5019L17.9636 12.514C17.9606 12.5231 17.9566 12.5319 17.9514 12.54C17.941 12.558 17.9265 12.5732 17.909 12.5845C17.8915 12.5957 17.8716 12.6027 17.8509 12.6047C17.8327 12.6068 17.8143 12.6052 17.7967 12.5999C17.7791 12.5946 17.7628 12.5859 17.7487 12.5741L17.736 12.562C17.736 12.5579 17.736 12.562 17.7458 12.57C17.7666 12.5876 17.7926 12.5979 17.8198 12.5995C17.8395 12.6009 17.8592 12.5977 17.8775 12.5903C17.8892 12.5856 17.9001 12.5792 17.9099 12.5712C17.9224 12.5616 17.9325 12.5491 17.9393 12.5348L17.9428 12.5261C17.9303 12.5477 17.9197 12.5704 17.911 12.5937C17.8995 12.6197 17.8879 12.6469 17.8746 12.674C17.849 12.7314 17.8185 12.7865 17.7834 12.8386L17.747 12.834Z" fill="url(#paint9_linear_79_8298)"/>
</g>
<defs>
<linearGradient id="paint0_linear_79_8298" x1="0.842071" y1="5.54006" x2="6.71137" y2="5.54006" gradientUnits="userSpaceOnUse">
<stop stop-color="white" stop-opacity="0.3"/>
<stop offset="0.51" stop-color="white"/>
<stop offset="1" stop-color="white" stop-opacity="0.6"/>
</linearGradient>
<linearGradient id="paint1_linear_79_8298" x1="29.6247" y1="13.5835" x2="33.0587" y2="13.5835" gradientUnits="userSpaceOnUse">
<stop stop-color="white" stop-opacity="0.3"/>
<stop offset="0.51" stop-color="white"/>
<stop offset="1" stop-color="white" stop-opacity="0.6"/>
</linearGradient>
<linearGradient id="paint2_linear_79_8298" x1="24.3412" y1="13.8692" x2="26.9093" y2="13.8692" gradientUnits="userSpaceOnUse">
<stop stop-color="white" stop-opacity="0.3"/>
<stop offset="0.51" stop-color="white"/>
<stop offset="1" stop-color="white" stop-opacity="0.6"/>
</linearGradient>
<linearGradient id="paint3_linear_79_8298" x1="39.0956" y1="13.6353" x2="47.2425" y2="13.6353" gradientUnits="userSpaceOnUse">
<stop stop-color="white" stop-opacity="0.3"/>
<stop offset="0.51" stop-color="white"/>
<stop offset="1" stop-color="white" stop-opacity="0.6"/>
</linearGradient>
<linearGradient id="paint4_linear_79_8298" x1="57.4046" y1="20.3795" x2="61.0246" y2="20.3795" gradientUnits="userSpaceOnUse">
<stop stop-color="white" stop-opacity="0.3"/>
<stop offset="0.51" stop-color="white"/>
<stop offset="1" stop-color="white" stop-opacity="0.6"/>
</linearGradient>
<linearGradient id="paint5_linear_79_8298" x1="51.332" y1="5.39912" x2="55.5909" y2="5.39912" gradientUnits="userSpaceOnUse">
<stop stop-color="white" stop-opacity="0.3"/>
<stop offset="0.51" stop-color="white"/>
<stop offset="1" stop-color="white" stop-opacity="0.6"/>
</linearGradient>
<linearGradient id="paint6_linear_79_8298" x1="65.1784" y1="24.3496" x2="65.6567" y2="24.3496" gradientUnits="userSpaceOnUse">
<stop stop-color="white" stop-opacity="0.3"/>
<stop offset="0.51" stop-color="white"/>
<stop offset="1" stop-color="white" stop-opacity="0.6"/>
</linearGradient>
<linearGradient id="paint7_linear_79_8298" x1="37.7711" y1="23.7034" x2="38.336" y2="23.9536" gradientUnits="userSpaceOnUse">
<stop stop-color="white" stop-opacity="0.3"/>
<stop offset="0.51" stop-color="white"/>
<stop offset="1" stop-color="white" stop-opacity="0.6"/>
</linearGradient>
<linearGradient id="paint8_linear_79_8298" x1="10.0141" y1="15.2273" x2="13.3153" y2="15.2273" gradientUnits="userSpaceOnUse">
<stop stop-color="white" stop-opacity="0.3"/>
<stop offset="0.51" stop-color="white"/>
<stop offset="1" stop-color="white" stop-opacity="0.6"/>
</linearGradient>
<linearGradient id="paint9_linear_79_8298" x1="17.5922" y1="12.5758" x2="19.7877" y2="12.5758" gradientUnits="userSpaceOnUse">
<stop stop-color="white" stop-opacity="0.3"/>
<stop offset="0.51" stop-color="white"/>
<stop offset="1" stop-color="white" stop-opacity="0.6"/>
</linearGradient>
<clipPath id="clip0_79_8298">
<rect width="66" height="34" fill="white"/>
</clipPath>
</defs>
</svg>
